Coordinates
version=1
nRows=10
nColumns=22
inDegrees=yes

Units are S.I. units (second, meters, Newtons, ...)
If the header above contains a line with 'inDegrees', this indicates whether rotational values are in degrees (yes) or radians (no).

endheader
time	pelvis_tilt	pelvis_list	pelvis_rotation	pelvis_tx	pelvis_ty	pelvis_tz	hip_flexion_r	hip_adduction_r	hip_rotation_r	knee_angle_r	ankle_angle_r	subtalar_angle_r	hip_flexion_l	hip_adduction_l	hip_rotation_l	knee_angle_l	ankle_angle_l	subtalar_angle_l	lumbar_extension	lumbar_bending	lumbar_rotation
      4.18000000	     -5.35928442	      5.50767306	   -103.87374694	      0.23735625	      0.85571886	      0.24594770	    -12.04446919	      1.21198315	     18.28350478	    -14.84689304	     14.56339770	      4.58285164	     33.76444042	    -15.34282987	     -0.58594477	    -32.73791989	      3.05791225	      7.93655560	      0.00316197	      6.79313207	     20.22736004
      4.19000000	     -5.21994455	      5.53306940	   -104.13708430	      0.23986245	      0.85684557	      0.25459648	    -11.73868154	      0.85983812	     18.68762985	    -16.06164945	     13.48159655	      5.35247099	     33.40386695	    -15.05865052	     -0.98059366	    -33.30234493	      3.86623520	      7.53048601	      0.02899293	      6.62231486	     20.33689695
      4.20000000	     -5.09706791	      5.62878664	   -104.39442036	      0.24241172	      0.85797029	      0.26310950	    -11.25401444	      0.59075892	     19.07839756	    -17.43280650	     12.27706299	      6.19634473	     33.00356199	    -14.82126884	     -1.50039868	    -33.65643440	      4.68871572	      7.15876289	      0.12595880	      6.50380255	     20.42748159
      4.21000000	     -4.98867715	      5.78057482	   -104.67269812	      0.24493121	      0.85914426	      0.27139882	    -10.56646392	      0.41405410	     19.47236368	    -19.02290921	     10.94469899	      7.04128822	     32.54348258	    -14.63315952	     -2.10457469	    -33.79077668	      5.45297609	      6.86701241	      0.26786591	      6.42379947	     20.55491135
      4.22000000	     -4.87446953	      5.97412510	   -104.93710546	      0.24747865	      0.86035684	      0.27951252	     -9.70420883	      0.30205885	     19.78533639	    -20.79376404	      9.47093352	      7.94973915	     32.05524130	    -14.45445324	     -2.78639120	    -33.76425741	      6.16710849	      6.63592043	      0.45415752	      6.36081289	     20.64469764
      4.23000000	     -4.75043552	      6.19220074	   -105.18559570	      0.25000440	      0.86163055	      0.28739662	     -8.66093786	      0.25504101	     19.99086331	    -22.78253978	      7.87956725	      8.89014071	     31.53878068	    -14.27130410	     -3.49862589	    -33.59238875	      6.79275755	      6.46532976	      0.66311817	      6.29440962	     20.70538662
      4.24000000	     -4.61149886	      6.41572929	   -105.40250332	      0.25252832	      0.86296668	      0.29501285	     -7.44499349	      0.25754310	     20.03692230	    -24.99162354	      6.20584269	      9.86253586	     31.00935303	    -14.05564300	     -4.18325282	    -33.31769878	      7.31817110	      6.33736141	      0.87114395	      6.21202463	     20.71812814
      4.25000000	     -4.45764419	      6.63002887	   -105.58001169	      0.25504948	      0.86434765	      0.30232934	     -6.05822365	      0.29165785	     19.86500947	    -27.42705981	      4.51634994	     10.78985318	     30.47688899	    -13.79965831	     -4.82245537	    -32.97185428	      7.74577690	      6.24047951	      1.05765835	      6.10728518	     20.66776811
      4.26000000	     -4.27474644	      6.81834138	   -105.72180669	      0.25754407	      0.86573310	      0.30932528	     -4.50512584	      0.31768807	     19.43933343	    -30.08848842	      2.89860350	     11.58623781	     29.95548515	    -13.48944303	     -5.41815561	    -32.60711737	      8.07736471	      6.16269760	      1.20607229	      5.95265073	     20.54862009
      4.27000000	     -4.07076602	      6.98513029	   -105.81459217	      0.26006709	      0.86709089	      0.31599378	     -2.80324515	      0.31496148	     18.77901161	    -32.91659122	      1.38631998	     12.33813027	     29.45442161	    -13.11005963	     -5.88746365	    -32.22260178	      8.35041657	      6.06230845	      1.31554390	      5.76245965	     20.34800097
